<mxfile host="65bd71144e">
    <diagram id="x7csn9zrtllCP2Q9Hka8" name="ページ1">
        <mxGraphModel dx="547" dy="467" grid="1" gridSize="10" guides="1" tooltips="1" connect="1" arrows="1" fold="1" page="1" pageScale="1" pageWidth="827" pageHeight="1169" math="0" shadow="0">
            <root>
                <mxCell id="0"/>
                <mxCell id="1" parent="0"/>
                <mxCell id="2" value="" style="rounded=0;whiteSpace=wrap;html=1;" parent="1" vertex="1">
                    <mxGeometry x="300" y="380" width="360" height="200" as="geometry"/>
                </mxCell>
                <mxCell id="3" value="" style="aspect=fixed;html=1;points=[];align=center;image;fontSize=12;image=img/lib/azure2/app_services/App_Services.svg;" parent="1" vertex="1">
                    <mxGeometry x="360" y="440" width="40" height="40" as="geometry"/>
                </mxCell>
                <mxCell id="4" value="" style="aspect=fixed;html=1;points=[];align=center;image;fontSize=12;image=img/lib/azure2/ai_machine_learning/Cognitive_Services.svg;" parent="1" vertex="1">
                    <mxGeometry x="540" y="440" width="56.66" height="40" as="geometry"/>
                </mxCell>
                <mxCell id="5" value="App Service" style="text;html=1;align=center;verticalAlign=middle;resizable=0;points=[];autosize=1;strokeColor=none;fillColor=none;" parent="1" vertex="1">
                    <mxGeometry x="335" y="490" width="90" height="30" as="geometry"/>
                </mxCell>
                <mxCell id="6" value="OpenAI Service" style="text;html=1;align=center;verticalAlign=middle;resizable=0;points=[];autosize=1;strokeColor=none;fillColor=none;" parent="1" vertex="1">
                    <mxGeometry x="513.33" y="490" width="110" height="30" as="geometry"/>
                </mxCell>
                <mxCell id="7" value="" style="aspect=fixed;html=1;points=[];align=center;image;fontSize=12;image=img/lib/azure2/identity/Users.svg;" parent="1" vertex="1">
                    <mxGeometry x="200" y="440" width="36.57" height="40" as="geometry"/>
                </mxCell>
                <mxCell id="8" value="User" style="text;html=1;align=center;verticalAlign=middle;resizable=0;points=[];autosize=1;strokeColor=none;fillColor=none;" parent="1" vertex="1">
                    <mxGeometry x="193.29" y="490" width="50" height="30" as="geometry"/>
                </mxCell>
                <mxCell id="9" value=":3000" style="text;html=1;align=center;verticalAlign=middle;resizable=0;points=[];autosize=1;strokeColor=none;fillColor=none;" vertex="1" parent="1">
                    <mxGeometry x="320" y="410" width="50" height="30" as="geometry"/>
                </mxCell>
                <mxCell id="10" value="GET /&lt;br&gt;GET /api/chat&lt;br&gt;POST /api/chat" style="text;html=1;align=left;verticalAlign=middle;resizable=0;points=[];autosize=1;strokeColor=none;fillColor=none;" vertex="1" parent="1">
                    <mxGeometry x="380" y="380" width="100" height="60" as="geometry"/>
                </mxCell>
            </root>
        </mxGraphModel>
    </diagram>
</mxfile>